<svg xmlns="http://www.w3.org/2000/svg" width="19" height="19" viewBox="0 0 19 19"><defs><style>.a{fill:rgba(255,255,255,0);}.b{fill:#fff;}</style></defs><rect class="a" width="19" height="19"/><g transform="translate(2.988 2)"><g transform="translate(0.012)"><path class="b" d="M12.967,12.9A6.585,6.585,0,0,0,6.513,7.993,6.585,6.585,0,0,0,.059,12.9,1.636,1.636,0,0,0,.4,14.339,1.839,1.839,0,0,0,1.82,15H11.2a1.834,1.834,0,0,0,1.425-.664,1.634,1.634,0,0,0,.341-1.436ZM6.509,6.768a3.454,3.454,0,0,0,3.52-3.384A3.454,3.454,0,0,0,6.509,0a3.454,3.454,0,0,0-3.52,3.384,3.456,3.456,0,0,0,3.52,3.384Z" transform="translate(-0.012)"/></g></g></svg>