<svg xmlns="http://www.w3.org/2000/svg" width="19" height="19" viewBox="0 0 19 19"><defs><style>.a{fill:rgba(255,255,255,0);}.b{fill:#fff;}</style></defs><rect class="a" width="19" height="19"/><g transform="translate(2 2)"><path class="b" d="M12.331,0H2.669A2.672,2.672,0,0,0,0,2.669v9.661A2.672,2.672,0,0,0,2.669,15H7.653V9.45H6V7.536H7.653V6.125a2.316,2.316,0,0,1,2.464-2.542,13.612,13.612,0,0,1,1.477.076V5.369H10.576c-.8,0-.948.376-.948.931V7.523h1.894l-.254,1.914H9.631V15h2.7A2.672,2.672,0,0,0,15,12.331V2.669A2.672,2.672,0,0,0,12.331,0Z"/></g></svg>