<svg xmlns="http://www.w3.org/2000/svg" width="115.296" height="70" viewBox="0 0 115.296 70"><defs><style>.a{fill:#32125b;}.b{fill:#fff;}.c{fill:#ff613b;}</style></defs><g transform="translate(-786.2 -890.891)"><path class="a" d="M3238.3,2951.8l.008,0C3238.306,2951.784,3238.3,2951.784,3238.3,2951.8Z" transform="translate(-2381.792 -2001.804)"/><path class="a" d="M3100.751,2438Z" transform="translate(-2248.185 -1502.749)"/><path class="a" d="M3100.6,2441.229v0Z" transform="translate(-2248.039 -1505.858)"/><path class="b" d="M2889.648,2389.315a0,0,0,0,0,0,0l0,0m.5-.014.209-.009.02.009a.053.053,0,0,0,.018.011l.011.009.017.014a.3.3,0,0,1,.041.04.021.021,0,0,0,.005.011l.006.014,0,.006,0,.011c0,.034.005.069.008.1l0,.175.005.344.015.683.012.51-.829.017-.015-.209c-.008-.072-.008-.167-.011-.25l-.006-.261-.026-.972a.21.21,0,0,0,0-.037v-.042l0-.149s.006,0,.012,0v0h.006l.048-.009.037,0h.032l.106,0,.212-.009h.04m3.45,14.77h-.017m0,0q-2.551.026-5.1.08l-2.549.054a1.162,1.162,0,0,1-.971-.327,1.018,1.018,0,0,1-.15-.5c-.006-.1-.02-.192-.017-.3l-.006-.163a1.64,1.64,0,0,0-.008-.169l-.118-3.5-.068-1.775-.075-1.775-.181-3.547-.109-1.775-.066-.894c-.023-.3-.04-.585-.054-.874-.023.473-.063.952-.1,1.448-.017.246-.032.49-.046.731l-.046.729c-.061.969-.1,1.941-.155,2.91-.1,1.941-.175,3.882-.244,5.823l-.094,2.913.009.385a2.561,2.561,0,0,0,.045.39,2.219,2.219,0,0,0,.29.749,1.713,1.713,0,0,0,.255.324,2.111,2.111,0,0,0,.309.264,2.594,2.594,0,0,0,.731.333,2.864,2.864,0,0,0,.384.08l.19.026.2.017.736.018,1.457.031c.972.017,1.944.04,2.916.052l1.457.02.728.009.365,0c.063,0,.12,0,.2,0s.137-.014.206-.02a2.738,2.738,0,0,0,1.48-.671,2.636,2.636,0,0,0,.519-.643,3.132,3.132,0,0,0,.3-.754,3.066,3.066,0,0,0,.078-.393l.014-.106.009-.094c.006-.066.012-.129.012-.195.005-.132.005-.253.009-.376v-.367l.008-1.457c0-.972,0-1.944,0-2.916l-.011-2.913-.006-.728,0-.364v-.092c0-.009,0-.052,0-.083l-.006-.038,0-.023-.009-.057-.008-.049c-.006-.032-.015-.066-.023-.1-.015-.069-.035-.135-.055-.2s-.037-.132-.06-.2a3.221,3.221,0,0,0-.164-.378,2.82,2.82,0,0,0-.484-.685,2.4,2.4,0,0,0-.7-.508,2.519,2.519,0,0,0-.82-.241,3.915,3.915,0,0,0-.418-.02l-.362.006-.728.009c-.252.006-.5.009-.757.011l.037-.625.038-.705.02-.35a2.244,2.244,0,0,0,0-.232l-.006-.069-.008-.057-.02-.109,0-.014-.005-.014c-.02-.06-.031-.109-.057-.175a1.723,1.723,0,0,0-.092-.189,1.479,1.479,0,0,0-.247-.315,1.642,1.642,0,0,0-.3-.241,1.767,1.767,0,0,0-.362-.169l-.476-.037-.381-.012a1.928,1.928,0,0,0-.422.021,1.541,1.541,0,0,0-.444.14,1.132,1.132,0,0,0-.2.123,1.242,1.242,0,0,0-.184.161,1.291,1.291,0,0,0-.152.187.831.831,0,0,0-.063.1c-.02.035-.034.066-.051.1a1.624,1.624,0,0,0-.135.427c-.008.074-.022.143-.028.218,0,.038,0,.077,0,.112v.057l-.028,1.176c0,.1-.006.2-.006.3l.012.33a1.6,1.6,0,0,0,.012.167c.008.057.014.1.025.16s.026.129.046.2.041.117.058.163l.008.02.009.018.043.086a1.02,1.02,0,0,0,.072.123,1.431,1.431,0,0,0,.177.206l.049.046.046.037c.031.023.069.049.112.074.071.043.141.072.209.106l.015.006.014,0c.052.017.113.04.161.052l.14.038a1.2,1.2,0,0,0,.238.034l.143,0,.573.012.3,0,.015.551.048,1.368.835.014.1-1.419.029-.5.974.015.574.009.286,0,.229.006.026,0a.865.865,0,0,1,.3.083.721.721,0,0,1,.229.189,1.216,1.216,0,0,1,.169.3,1.345,1.345,0,0,1,.058.175c.008.031.017.06.023.089a.07.07,0,0,0,.006.026.208.208,0,0,1,0,.038c0,.017,0,.034,0,.048l-.017,2.672v2.81l.011,2.81,0,.35c0,.115,0,.238,0,.341a2.481,2.481,0,0,1-.025.31,1.824,1.824,0,0,1-.072.281,1.312,1.312,0,0,1-.054.124c-.012.02-.023.04-.035.057l-.02.031-.015.026a1.152,1.152,0,0,1-.086.095.5.5,0,0,1-.095.08.9.9,0,0,1-.235.123c-.043.015-.089.026-.134.038a.535.535,0,0,1-.066.011l-.032,0h0Z" transform="translate(-2037.067 -1454.078)"/><path class="a" d="M4253.339,2742.909v-.009C4253.23,2742.938,4253.281,2742.926,4253.339,2742.909Z" transform="translate(-3367.663 -1798.907)"/><path class="b" d="M3869.153,2403.6l.729.02.075,0,.04,0,.034,0a1.22,1.22,0,0,1,.138.023.345.345,0,0,1,.054.011l.061.023a1.026,1.026,0,0,1,.112.048.918.918,0,0,1,.341.365,1.6,1.6,0,0,1,.111.261l.012.034a.21.21,0,0,1,.012.04l.017.072a.566.566,0,0,1,.014.066l.006.026v.02h0v.009h0c-.026,1.276-.04,2.552-.057,3.825l0,.49c0,.161,0,.338-.008.47,0,.035,0,.066-.005.106s-.006.078-.012.112a1.91,1.91,0,0,1-.037.2,1.267,1.267,0,0,1-.138.347.865.865,0,0,1-.1.135.71.71,0,0,1-.124.106c-.025.017-.048.031-.074.045a.5.5,0,0,1-.078.038.954.954,0,0,1-.173.057.562.562,0,0,1-.088.017l-.043.005c-.018,0-.008,0-.029,0l-.241,0-.487,0q-1.957-.009-3.914,0l-1.958.009-.977.006h-.1l-.129-.006-.106-.012c-.025,0-.066-.009-.1-.014a1.151,1.151,0,0,1-.192-.046.615.615,0,0,1-.155-.071.294.294,0,0,1-.049-.034l-.011-.009-.023-.026a.117.117,0,0,1-.029-.038l-.017-.026-.014-.026a.419.419,0,0,1-.024-.052c-.008-.029-.017-.046-.022-.069-.012-.046-.021-.1-.028-.149a2.516,2.516,0,0,1-.018-.344l0-.192-.006-.14-.04-3.008-.061-3v-.02l2.1.1,2.907.109Zm3.481,4.645-.029-1.838-.035-1.838v-.029l0-.043a.849.849,0,0,0-.011-.1c-.009-.054-.015-.089-.026-.135a2.322,2.322,0,0,0-.068-.255,3,3,0,0,0-.19-.487,2.743,2.743,0,0,0-.648-.86,2.443,2.443,0,0,0-.459-.312,2.275,2.275,0,0,0-.516-.192,2.523,2.523,0,0,0-.539-.078.988.988,0,0,0-.132,0h-.126l-.229.006-1.838.055c-1.227.031-2.452.08-3.679.126-.614.018-1.224.054-1.838.083l-1.055.051-.049-2.081c-.026-1-.06-2-.092-3a2.309,2.309,0,0,1,.063-.7,1.3,1.3,0,0,1,.31-.582,1.285,1.285,0,0,1,.571-.333,1.076,1.076,0,0,1,.166-.037c.028,0,.054-.009.077-.012l.092,0,.376-.014,3-.135c1-.052,2-.1,3.005-.163l1.517-.106c.283-.02.565-.04.843-.055l.636-.034h0l-.6-.034c-.4-.023-.8-.049-1.213-.08-.614-.046-1.244-.089-1.852-.123q-1.837-.1-3.673-.184l-1.835-.081-.232-.011a2.337,2.337,0,0,0-.247,0,2.5,2.5,0,0,0-.482.086,2.38,2.38,0,0,0-.869.45,2.323,2.323,0,0,0-.6.78,2.955,2.955,0,0,0-.269.938,4.579,4.579,0,0,0-.038.476l-.014.459-.029.92q-.1,3.678-.172,7.352l-.026,1.838-.011.921-.006.459v.077a.248.248,0,0,1,0,.049v.043l0,.058c0,.077,0,.16,0,.241a3.215,3.215,0,0,0,.138,1,2.31,2.31,0,0,0,.218.484,2.128,2.128,0,0,0,.329.425,2.844,2.844,0,0,0,1.89.742c.183.009.326,0,.481.006l.458,0,.921,0,1.838.006,3.678-.011.465,0a2.143,2.143,0,0,0,.275-.026,2.014,2.014,0,0,0,.261-.049,2.856,2.856,0,0,0,.5-.169c.08-.037.16-.074.238-.12a2.558,2.558,0,0,0,.226-.143c.035-.026.072-.052.11-.083s.068-.054.1-.083a2.3,2.3,0,0,0,.2-.189,2.568,2.568,0,0,0,.172-.207,2.158,2.158,0,0,0,.149-.224,3.049,3.049,0,0,0,.37-.98,2.571,2.571,0,0,0,.04-.256,2.354,2.354,0,0,0,.023-.243c.012-.166.012-.35.008-.5Z" transform="translate(-2985.233 -1460.627)"/><path class="b" d="M3397.408,2415.2l-.009-1.018-.005-.508v-.252l0-.074a.836.836,0,0,0-.014-.118.857.857,0,0,0-.075-.22.833.833,0,0,0-.129-.2l-.086-.095-.169-.189-.339-.379-.682-.754c-.909-1-1.823-2-2.758-2.985l-.7-.74-.349-.367-.359-.365-1.436-1.445-.631.536,1.489,2.03,1.525,1.993.772.989.782.981,1.376,1.694c-.011,1.3-.028,2.6-.031,3.9l0,1.052.009,1.058v.255c0,.034,0,.074-.006.115l-.015.115a1.344,1.344,0,0,1-.1.424.834.834,0,0,1-.576.5c-.032.009-.066.023-.1.029l-.095.014-.244.006-.527.014-1.055.031c-.7.021-1.405.038-2.107.069s-1.405.054-2.107.089l-1.056.054-.521.028a2.944,2.944,0,0,1-.5-.014l-.126-.023c-.043-.009-.086-.02-.126-.032a1.19,1.19,0,0,1-.229-.1.818.818,0,0,1-.321-.362,1.581,1.581,0,0,1-.135-.513c-.022-.18-.031-.37-.051-.571-.052-.634-.1-1.264-.163-1.9l-.1-.961c-.034-.332-.083-.651-.106-.96-.026.31-.075.628-.109.96l-.1.961q-.09.963-.163,1.927v.012c-.012.16-.029.324-.034.5a2.7,2.7,0,0,0,.017.525,2.063,2.063,0,0,0,.141.522,1.692,1.692,0,0,0,.292.468,2.033,2.033,0,0,0,.917.585,3.235,3.235,0,0,0,.519.124c.089.011.172.023.264.028l.135.012.126.005c1.35.08,2.7.126,4.057.18l2.03.064,1.016.022.255.006a2.331,2.331,0,0,0,.278,0c.1-.006.2-.02.284-.034a2.341,2.341,0,0,0,.281-.066,2.659,2.659,0,0,0,1.007-.531,2.492,2.492,0,0,0,.4-.418,2.678,2.678,0,0,0,.3-.493,3.231,3.231,0,0,0,.192-.536,4.1,4.1,0,0,0,.092-.553,5.047,5.047,0,0,0,.029-.539l0-.508c.006-.674-.006-1.354-.011-2.03Z" transform="translate(-2524.091 -1471.181)"/><path class="b" d="M2395.928,2380.99a2.116,2.116,0,0,0-.493-.622,2.276,2.276,0,0,0-.677-.4,3.116,3.116,0,0,0-.737-.183c-.06-.009-.121-.017-.186-.02l-.178-.015-.361-.005-.691-.009-2.77-.037c-.923-.006-1.846-.018-2.773-.015h-1.038c-.06,0-.109,0-.189,0s-.141.012-.2.02a2.8,2.8,0,0,0-.76.212,2.615,2.615,0,0,0-.682.422,2.687,2.687,0,0,0-.522.608,2.767,2.767,0,0,0-.321.728c-.02.066-.035.117-.049.181s-.029.126-.038.189a3.625,3.625,0,0,0-.046.387,3.375,3.375,0,0,0-.014.381l.006.347.057,2.77.063,2.77.034,1.385.052,1.385c.074,1.846.161,3.7.3,5.542h.832c.152-2.219.252-4.438.333-6.658.037-1.109.052-2.219.075-3.328l.066-3.329.017-.832a2.108,2.108,0,0,1,.095-.7.815.815,0,0,1,.35-.462.914.914,0,0,1,.276-.12,1.019,1.019,0,0,1,.149-.026c.02,0,.112,0,.175,0l3.329-.015,3.326-.043.832-.012.037,0,.052,0c.029,0,.069,0,.092,0,.065.005.129.011.186.02a.57.57,0,0,1,.083.014l.089.02a1.282,1.282,0,0,1,.149.055.485.485,0,0,1,.212.167.845.845,0,0,1,.106.29,2.1,2.1,0,0,1,.035.37l.006.2c0,.069,0,.141.009.221l.054,1.72.063,1.775.166,3.55.216,3.547c.046.6.1,1.21.155,1.8.029.293.055.585.078.875s.037.577.057.866c.02-.278.04-.556.057-.834.014-.172.026-.345.043-.519l.126-1.388.057-.705c.017-.235.029-.462.046-.694l.083-1.383.083-1.382c.026-.461.046-.923.066-1.385.043-.92.092-1.844.126-2.767l.049-1.385.043-1.388.011-.349c0-.026,0-.063,0-.086v-.077l.006-.175a3.85,3.85,0,0,0-.037-.74A2.439,2.439,0,0,0,2395.928,2380.99Z" transform="translate(-1551.209 -1446.105)"/><path class="b" d="M4366.565,2381.727a2.5,2.5,0,0,0-.239-.737,2.094,2.094,0,0,0-.494-.622,2.232,2.232,0,0,0-.676-.4,2.964,2.964,0,0,0-.365-.115,2.736,2.736,0,0,0-.372-.069,1.853,1.853,0,0,0-.187-.02l-.177-.015-.362-.005-.691-.009-2.77-.037c-.923-.006-1.845-.018-2.77-.015h-1.04c-.058,0-.109,0-.189,0s-.141.012-.2.02a2.78,2.78,0,0,0-.759.212,2.609,2.609,0,0,0-.683.422,2.7,2.7,0,0,0-.522.608,3.033,3.033,0,0,0-.322.728c-.02.066-.034.117-.048.181s-.029.126-.037.189a3.759,3.759,0,0,0-.047.387,3.555,3.555,0,0,0-.014.381l.006.347.057,2.77.066,2.77.034,1.385.05,1.385c.073,1.846.16,3.7.3,5.542h.832c.152-2.219.255-4.438.333-6.658.037-1.109.052-2.219.075-3.328l.065-3.329.017-.832a2.153,2.153,0,0,1,.1-.7.83.83,0,0,1,.347-.462.9.9,0,0,1,.279-.12.976.976,0,0,1,.148-.026c.017,0,.109,0,.173,0l3.329-.015,3.325-.043.831-.012.038,0,.052,0c.031,0,.068,0,.094,0,.063.005.13.011.187.02a.621.621,0,0,1,.081.014l.089.02a1.114,1.114,0,0,1,.148.055.5.5,0,0,1,.212.167.8.8,0,0,1,.105.29,1.8,1.8,0,0,1,.034.37l.007.2c0,.069,0,.141.009.221l.054,1.72.063,1.775.167,3.55.214,3.547c.046.6.1,1.21.158,1.8.025.293.051.585.074.875s.038.577.058.866c.02-.278.04-.556.058-.834.014-.172.027-.345.043-.519l.125-1.388.059-.705c.02-.235.03-.462.046-.694l.086-1.383.082-1.382c.026-.461.043-.923.066-1.385.04-.92.088-1.844.124-2.767l.049-1.385.043-1.388.012-.349c0-.026,0-.063,0-.086l0-.077,0-.175A3.46,3.46,0,0,0,4366.565,2381.727Z" transform="translate(-3465.11 -1446.105)"/><path class="b" d="M1185.273,1438.08l-.055-2.386-.063-2.56,2.4-.063,2.589-.078.149,4.559.014.43Zm20.5,6.595-2.839-3.26-2.847-3.257-.02-.02a.891.891,0,0,0-.685-.307l-3.687.055-3.69.063-1.336.026.014-.422.163-4.923a.343.343,0,0,0-.333-.355h-.023l-2.93-.086-2.933-.077a.5.5,0,0,0-.516.493l0,.026-.074,3.065-.072,3.065v0a.65.65,0,0,0,.637.662h.029l5.746.115.017.473c.031.82.063,1.64.1,2.46.037-.82.069-1.64.1-2.46l.017-.47,1.4.029,3.69.063,3.246.046,2.495,3.01,2.2,2.641-3.865,4.476c-1.48,1.709-2.948,3.429-4.418,5.144l-2.2,2.575-2.2,2.583-3.492,4.109-3.315-4.083-4.206-5.15-4.218-5.138-3.753-4.545,3.6-5.006,4.031-5.652c1.336-1.887,2.678-3.773,4.009-5.666l3.644-5.193,1.864,2.185,2.28,2.652c.76.883,1.517,1.769,2.282,2.65s1.528,1.76,2.3,2.635c-.688-.941-1.388-1.875-2.081-2.81s-1.4-1.867-2.1-2.8l-2.1-2.8-2.113-2.784a.47.47,0,0,0-.083-.086.462.462,0,0,0-.648.083l-.014.017-4.261,5.482c-1.419,1.827-2.824,3.664-4.238,5.5l-4.215,5.514-4.2,5.528a.977.977,0,0,0,.011,1.193l.014.02,4.129,5.21,4.14,5.2,4.158,5.187,4.169,5.178a1.578,1.578,0,0,0,.152.155,1.152,1.152,0,0,0,1.62-.132l0,0,4.384-5.17,2.191-2.589,2.182-2.6c1.454-1.729,2.913-3.455,4.361-5.193l4.344-5.207.014-.014A1.02,1.02,0,0,0,1205.769,1444.674Z" transform="translate(-372.516 -516.403)"/><path class="c" d="M786.2,929.777c2.148-3.051,4.2-5.978,6.262-8.894,1.933-2.727,3.857-5.462,5.823-8.143.817-1.113.488-2.455.542-3.679.135-3.091.138-6.191.143-9.287,0-.786.189-1.026.786-1.009q2.2.06,4.4,0c.6-.017.823.238.791,1.018a17.765,17.765,0,0,0,.186,3.461c.39-.487.791-.963,1.173-1.465,2.629-3.455,5.262-6.9,7.868-10.386.447-.593.723-.714,1.241-.072,3.409,4.224,6.853,8.4,10.285,12.588q7.583,9.256,15.165,18.514a7.035,7.035,0,0,1,.4.662,7.356,7.356,0,0,1-.831.112c-2.873.02-5.746.06-8.619.017a1.858,1.858,0,0,1-1.284-.648c-3.662-4.364-7.292-8.771-10.93-13.167-1.631-1.967-3.263-3.928-5.009-6.03-6.354,8.593-12.682,17.155-19.1,25.843,7.042,8.679,14.036,17.3,21.083,25.981l-4.92,5.7C803.172,950.528,794.724,940.2,786.2,929.777Z" transform="translate(0 0)"/></g></svg>