<svg xmlns="http://www.w3.org/2000/svg" width="19" height="19" viewBox="0 0 19 19"><defs><style>.a{fill:rgba(255,255,255,0);}.b{fill:#fff;}</style></defs><rect class="a" width="19" height="19"/><g transform="translate(2 2)"><path class="b" d="M7.5,5.593A1.907,1.907,0,1,0,9.407,7.5,1.907,1.907,0,0,0,7.5,5.593Zm0,0A1.907,1.907,0,1,0,9.407,7.5,1.907,1.907,0,0,0,7.5,5.593ZM12.331,0H2.669A2.672,2.672,0,0,0,0,2.669v9.661A2.672,2.672,0,0,0,2.669,15h9.661A2.672,2.672,0,0,0,15,12.331V2.669A2.672,2.672,0,0,0,12.331,0ZM7.5,10.678A3.178,3.178,0,1,1,10.678,7.5,3.178,3.178,0,0,1,7.5,10.678Zm4.195-6.1a1.271,1.271,0,1,1,1.271-1.271A1.271,1.271,0,0,1,11.695,4.576ZM7.5,5.593A1.907,1.907,0,1,0,9.407,7.5,1.907,1.907,0,0,0,7.5,5.593Z"/></g></svg>