<svg xmlns="http://www.w3.org/2000/svg" width="19" height="19" viewBox="0 0 19 19"><defs><style>.a{fill:rgba(255,255,255,0);}.b{fill:#fff;}</style></defs><rect class="a" width="19" height="19" transform="translate(0)"/><g transform="translate(0.006 1.998)"><g transform="translate(-0.006 0.002)"><path class="b" d="M5.972,15A10.859,10.859,0,0,0,17.062,4.223V3.733a7.75,7.75,0,0,0,1.932-1.956,7.966,7.966,0,0,1-2.254.594A3.815,3.815,0,0,0,18.469.279,7.994,7.994,0,0,1,16,1.195,3.986,3.986,0,0,0,11.718.267,3.791,3.791,0,0,0,9.25,3.783a3.62,3.62,0,0,0,.1.863A11.177,11.177,0,0,1,1.319.695a3.721,3.721,0,0,0,1.2,5.05A3.954,3.954,0,0,1,.759,5.27v.044A3.811,3.811,0,0,0,3.885,9.02a3.974,3.974,0,0,1-1.027.134,4.057,4.057,0,0,1-.734-.069A3.89,3.89,0,0,0,5.766,11.72a7.961,7.961,0,0,1-4.83,1.619,8.32,8.32,0,0,1-.942-.053A11.266,11.266,0,0,0,5.972,15" transform="translate(0.006 -0.002)"/></g></g></svg>