<svg xmlns="http://www.w3.org/2000/svg" width="19" height="19" viewBox="0 0 19 19"><defs></defs><g transform="translate(-145 -662)"><rect class="a" width="19" height="19" transform="translate(145 662)"/><g transform="translate(146.997 664)"><g transform="translate(0.003 0)"><path class="b" d="M14.816,7.2,7.948.2A.628.628,0,0,0,7.491,0h0a.632.632,0,0,0-.45.189L.206,7.171a.686.686,0,0,0-.069.894.628.628,0,0,0,.944.047l.684-.7V12.28A2.694,2.694,0,0,0,4.433,15h6.13a2.694,2.694,0,0,0,2.666-2.719V7.417l.687.7a.63.63,0,0,0,.9,0,.657.657,0,0,0,0-.918ZM9.024,12.275H5.972a.514.514,0,0,1-.509-.518V10.315a2.106,2.106,0,0,1,1.9-2.139,2.012,2.012,0,0,1,1.527.557,2.093,2.093,0,0,1,.643,1.517v1.511A.514.514,0,0,1,9.024,12.275Z" transform="translate(-0.003 0)"/></g></g></g></svg>