<svg xmlns="http://www.w3.org/2000/svg" width="19" height="19" viewBox="0 0 19 19"><defs><style>.a{fill:rgba(255,255,255,0);}.b{fill:#fff;}</style></defs><rect class="a" width="19" height="19"/><g transform="translate(0.525 1.941)"><g transform="translate(0.475 0.059)"><g transform="translate(0 0)"><path class="b" d="M16.332,3.455a.815.815,0,0,0-.664-.357H4.5L4.4,2.612A2.981,2.981,0,0,0,2.1.227L1.316.059A.824.824,0,0,0,.492.727a.842.842,0,0,0,.5.947l.787.168A1.352,1.352,0,0,1,2.822,2.925l.216,1.137V4.1l.8,4.214a2.981,2.981,0,0,0,2.9,2.449h5.194a2.975,2.975,0,0,0,2.758-1.955l1.728-4.574a.853.853,0,0,0-.087-.776Zm-4.475,8.856a1.345,1.345,0,0,0-1.249.843,1.4,1.4,0,0,0,.288,1.5,1.324,1.324,0,0,0,1.468.3,1.375,1.375,0,0,0,.83-1.272,1.357,1.357,0,0,0-1.337-1.371Z" transform="translate(-0.475 -0.059)"/><circle class="b" cx="1.377" cy="1.377" r="1.377" transform="translate(4.732 12.243)"/></g></g></g></svg>